<?xml version="1.0" standalone="no"?>
<!DOCTYPE svg PUBLIC "-//W3C//DTD SVG 20010904//EN"
 "http://www.w3.org/TR/2001/REC-SVG-20010904/DTD/svg10.dtd">
<svg version="1.0" xmlns="http://www.w3.org/2000/svg"
 width="875.000000pt" height="875.000000pt" viewBox="0 0 875.000000 875.000000"
 preserveAspectRatio="xMidYMid meet">
<metadata>
Created by potrace 1.14, written by Peter Selinger 2001-2017
</metadata>
<g transform="translate(0.000000,875.000000) scale(0.100000,-0.100000)"
fill="#000000" stroke="none">
<path d="M2923 7073 l-2923 -1176 0 -138 0 -139 48 19 c193 76 5781 2185 5797
2188 14 3 420 -308 1440 -1102 l1420 -1106 3 137 c1 76 -1 141 -5 145 -74 67
-2838 2349 -2846 2349 -7 0 -1327 -530 -2934 -1177z"/>
<path d="M2925 6571 l-2920 -1069 -3 -137 c-2 -128 -1 -137 15 -133 10 3 1327
452 2926 997 1599 546 2913 991 2920 988 7 -2 644 -449 1417 -992 772 -543
1410 -989 1417 -992 10 -4 13 24 13 130 l0 135 -1416 1067 c-779 587 -1424
1069 -1433 1071 -9 2 -1330 -477 -2936 -1065z"/>
<path d="M2923 6067 l-2923 -962 0 -138 c0 -127 1 -138 18 -133 442 140 5806
1768 5827 1769 24 1 326 -184 1443 -886 777 -488 1414 -887 1417 -887 3 0 5
62 5 138 l-1 137 -1415 959 c-779 527 -1423 960 -1433 962 -9 2 -1331 -429
-2938 -959z"/>
<path d="M2926 5565 c-1606 -470 -2921 -857 -2923 -859 -2 -2 -2 -64 -1 -138
l3 -134 2927 784 2926 784 1419 -782 c780 -431 1421 -785 1426 -787 4 -2 7 58
7 135 l0 138 -1416 853 c-779 469 -1423 855 -1432 857 -10 2 -1331 -381 -2936
-851z"/>
<path d="M2925 5061 l-2920 -748 -3 -136 c-1 -76 1 -137 5 -137 4 0 1323 304
2930 676 l2921 675 1409 -671 c774 -370 1416 -674 1426 -677 16 -5 17 4 15
132 l-3 138 -1420 748 c-781 412 -1424 748 -1430 748 -5 0 -1324 -337 -2930
-748z"/>
<path d="M2923 4557 l-2923 -641 0 -138 c0 -138 0 -138 23 -133 12 3 1330 259
2929 570 l2906 565 1412 -565 c776 -311 1417 -568 1425 -572 13 -4 15 16 15
133 l0 139 -1415 638 c-778 352 -1423 640 -1433 642 -9 2 -1332 -285 -2939
-638z"/>
<path d="M2930 4054 c-1603 -293 -2918 -533 -2922 -534 -5 0 -8 -62 -8 -138
l0 -138 2929 463 2929 462 1423 -463 1424 -463 3 135 c1 74 1 137 -2 139 -6 6
-2846 1073 -2854 1072 -4 -1 -1319 -241 -2922 -535z"/>
<path d="M2925 3551 l-2920 -427 -3 -137 c-1 -82 1 -137 7 -137 5 0 1323 159
2929 354 l2919 354 1414 -354 c778 -194 1420 -354 1427 -354 10 0 12 31 10
137 l-3 137 -1425 428 c-784 235 -1427 427 -1430 427 -3 -1 -1319 -193 -2925
-428z"/>
<path d="M3540 3115 c-1268 -139 -2583 -284 -2922 -321 l-618 -67 0 -139 0
-138 52 6 c29 3 1347 115 2930 248 l2876 243 1424 -248 c782 -137 1424 -249
1426 -249 1 0 2 62 2 138 l0 138 -1417 319 c-780 175 -1425 319 -1433 321 -8
1 -1052 -112 -2320 -251z"/>
<path d="M2940 2544 c-1603 -117 -2921 -213 -2927 -213 -10 -1 -13 -35 -13
-136 l0 -135 68 0 c37 1 1355 63 2929 139 l2861 137 1389 -137 c763 -76 1405
-138 1426 -139 l37 0 0 135 0 134 -32 6 c-18 3 -652 98 -1408 210 -756 113
-1384 207 -1395 208 -11 2 -1332 -92 -2935 -209z"/>
<path d="M2800 2035 c-1537 -57 -2796 -103 -2797 -104 -2 0 -3 -62 -3 -136 l0
-135 163 1 c89 0 1408 15 2930 32 l2768 32 1342 -32 c738 -17 1379 -32 1425
-32 l83 -1 -3 137 -3 138 -1375 102 c-1048 78 -1418 102 -1555 101 -99 0
-1438 -47 -2975 -103z"/>
<path d="M0 1399 l0 -139 98 -1 c53 0 1372 -33 2930 -72 l2834 -73 1376 73
c758 39 1398 72 1425 72 l47 1 0 138 0 137 -4355 2 -4355 2 0 -140z"/>
<path d="M0 1005 c0 -74 1 -135 3 -136 1 -1 1320 -83 2930 -183 l2929 -183
1421 182 1422 181 3 137 c3 137 3 137 -20 137 -13 -1 -654 -49 -1426 -109
l-1403 -109 -2892 109 c-1591 60 -2909 109 -2929 109 l-38 0 0 -135z"/>
</g>
</svg>
